<?xml version="1.0" encoding="UTF-8" standalone="no"?>
<svg
   clip-rule="evenodd"
   fill-rule="evenodd"
   stroke-linejoin="round"
   stroke-miterlimit="2"
   viewBox="0 0 45.980858 21.999998"
   version="1.1"
   id="svg4"
   sodipodi:docname="iconmonstr-error-filled.svg"
   width="45.980858"
   height="21.999998"
   inkscape:version="1.2.2 (b0a8486541, 2022-12-01)"
   xmlns:inkscape="http://www.inkscape.org/namespaces/inkscape"
   xmlns:sodipodi="http://sodipodi.sourceforge.net/DTD/sodipodi-0.dtd"
   xmlns="http://www.w3.org/2000/svg"
   xmlns:svg="http://www.w3.org/2000/svg">
  <defs
     id="defs8" />
  <sodipodi:namedview
     id="namedview6"
     pagecolor="#ffffff"
     bordercolor="#000000"
     borderopacity="0.25"
     inkscape:showpageshadow="2"
     inkscape:pageopacity="0.0"
     inkscape:pagecheckerboard="0"
     inkscape:deskcolor="#d1d1d1"
     showgrid="false"
     inkscape:zoom="12.448026"
     inkscape:cx="7.2702292"
     inkscape:cy="4.4585384"
     inkscape:window-width="1920"
     inkscape:window-height="1014"
     inkscape:window-x="0"
     inkscape:window-y="0"
     inkscape:window-maximized="1"
     inkscape:current-layer="svg4" />
  <path
     d="m 41.75434,13.999999 c 0,0.552 -0.448,1 -1,1 -0.552,0 -1,-0.448 -1,-1 0,-0.552 0.448,-1 1,-1 0.552,0 1,0.448 1,1 m -3,0 c 0,0.552 -0.448,1 -1,1 -0.552,0 -1,-0.448 -1,-1 0,-0.552 0.448,-1 1,-1 0.552,0 1,0.448 1,1 m -3,0 c 0,0.552 -0.448,1 -1,1 -0.552,0 -1,-0.448 -1,-1 0,-0.552 0.448,-1 1,-1 0.552,0 1,0.448 1,1 m 5.415,4.946 c -1,0.256 -1.989,0.482 -3.324,0.482 -3.465,0 -7.091,-2.065 -7.091,-5.423 0,-3.128 3.14,-5.6719992 7,-5.6719992 3.844,0 7,2.5419992 7,5.6720002 0,1.591 -0.646,2.527 -1.481,3.527 l 0.839,2.686 z m -13.373,-3.375 -4.389,1.896001 1.256,-4.012001 c -1.121,-1.340999 -1.909,-2.664999 -1.909,-4.6989995 0,-4.2769997 4.262,-7.7559997 9.5,-7.7559997 5.018,0 9.128,3.194 9.467,7.222 -1.19,-0.566 -2.551,-0.889 -3.967,-0.889 -4.199,0 -8,2.7970002 -8,6.6720002 0,0.712 0.147,1.399999 0.411,2.048999 -0.953,-0.126 -1.546,-0.271999 -2.369,-0.483 m 17.958,-1.566 c 0,-2.172 -1.199,-4.015 -3.002,-5.2099995 l 0.002,-0.039 C 42.75434,3.6699998 37.76634,0 32.25434,0 c -5.546,0 -10.5,3.6979998 -10.5,8.7559995 0,1.7940005 0.646,3.5559995 1.791,4.9219995 l -1.744,5.572 6.078,-2.625 c 0.982,0.253 1.932,0.407 2.85,0.489 1.317,1.953 3.876,3.314 7.116,3.314 1.019,0 2.105,-0.135 3.242,-0.428 l 4.631,2 -1.328,-4.245 c 0.871,-1.042 1.364,-2.384 1.364,-3.75"
     id="path133"
     style="fill:#00a800;fill-opacity:1" />
  <path
     d="m 10.497,20.495169 c 5.518,0 9.997999,-4.48 9.997999,-9.998 0,-5.5180003 -4.479999,-9.9970003 -9.997999,-9.9970003 -5.517,0 -9.997,4.479 -9.997,9.9970003 0,5.518 4.48,9.998 9.997,9.998 z m 0,-1.5 c -4.69,0 -8.497,-3.808 -8.497,-8.498 0,-4.6900005 3.807,-8.4970003 8.497,-8.4970003 4.69,0 8.497999,3.8069998 8.497999,8.4970003 0,4.69 -3.807999,8.498 -8.497999,8.498 z m 0,-6.5 c -0.414,0 -0.7499996,-0.336 -0.7499996,-0.75 V 6.2451685 c 0,-0.414 0.3359996,-0.75 0.7499996,-0.75 0.414,0 0.75,0.336 0.75,0.75 v 5.5000005 c 0,0.414 -0.336,0.75 -0.75,0.75 z m -0.002,3 c 0.552,0 1,-0.448 1,-1 0,-0.552 -0.448,-1 -1,-1 -0.5519996,0 -0.9999996,0.448 -0.9999996,1 0,0.552 0.448,1 0.9999996,1 z"
     fill-rule="nonzero"
     id="path4673"
     style="fill:#950000;fill-opacity:1;stroke:#950000;stroke-opacity:1" />
</svg>
